<?xml version="1.0" standalone="no"?>
<!DOCTYPE svg PUBLIC "-//W3C//DTD SVG 1.1//EN" "http://www.w3.org/Graphics/SVG/1.1/DTD/svg11.dtd" >
<svg xmlns="http://www.w3.org/2000/svg">
<metadata>
Created by FontForge 20120731 at Tue Feb 16 18:10:55 2016
 By Ads
</metadata>
<defs>
<font id="iconfont" horiz-adv-x="1024" >
  <font-face 
    font-family="iconfont"
    font-weight="500"
    font-stretch="normal"
    units-per-em="1024"
    panose-1="2 0 6 3 0 0 0 0 0 0"
    ascent="896"
    descent="-128"
    x-height="792"
    bbox="-0.25 -212 1025 896"
    underline-thickness="50"
    underline-position="-100"
    unicode-range="U+0078-E615"
  />
<missing-glyph horiz-adv-x="374" 
d="M34 0v682h272v-682h-272zM68 34h204v614h-204v-614z" />
    <glyph glyph-name=".notdef" horiz-adv-x="374" 
d="M34 0v682h272v-682h-272zM68 34h204v614h-204v-614z" />
    <glyph glyph-name=".null" horiz-adv-x="0" 
 />
    <glyph glyph-name="nonmarkingreturn" horiz-adv-x="341" 
 />
    <glyph glyph-name="x" unicode="x" horiz-adv-x="1001" 
d="M281 543q-27 -1 -53 -1h-83q-18 0 -36.5 -6t-32.5 -18.5t-23 -32t-9 -45.5v-76h912v41q0 16 -0.5 30t-0.5 18q0 13 -5 29t-17 29.5t-31.5 22.5t-49.5 9h-133v-97h-438v97zM955 310v-52q0 -23 0.5 -52t0.5 -58t-10.5 -47.5t-26 -30t-33 -16t-31.5 -4.5q-14 -1 -29.5 -0.5
t-29.5 0.5h-32l-45 128h-439l-44 -128h-29h-34q-20 0 -45 1q-25 0 -41 9.5t-25.5 23t-13.5 29.5t-4 30v167h911zM163 247q-12 0 -21 -8.5t-9 -21.5t9 -21.5t21 -8.5q13 0 22 8.5t9 21.5t-9 21.5t-22 8.5zM316 123q-8 -26 -14 -48q-5 -19 -10.5 -37t-7.5 -25t-3 -15t1 -14.5
t9.5 -10.5t21.5 -4h37h67h81h80h64h36q23 0 34 12t2 38q-5 13 -9.5 30.5t-9.5 34.5q-5 19 -11 39h-368zM336 498v228q0 11 2.5 23t10 21.5t20.5 15.5t34 6h188q31 0 51.5 -14.5t20.5 -52.5v-227h-327z" />
    <glyph glyph-name="uniE600" unicode="&#xe600;" 
d="M946 240l-434 434l-434 -434q-16 -16 -16 -39.5t16 -40.5q11 -10 25.5 -14t29 0t25.5 14l16 17v-275h675v275l17 -17q16 -16 39.5 -16t40 16.5t16.5 40t-16 39.5zM793 -41h-169v225h-224v-225h-169v274l281 281l281 -281v-274z" />
    <glyph glyph-name="uniE601" unicode="&#xe601;" 
d="M864 370q-9 20 -5 51q-2 -2 -3.5 -2.5t-9.5 -3.5t-19 -8q-14 -5 -32.5 -4.5t-34.5 3.5l-15 3l-27 -10q-14 -4 -27.5 -6.5t-24 -2.5t-19.5 0.5t-15 2t-10.5 3t-6.5 2.5l-2 1q19 19 46.5 22.5t45.5 -2.5l18 -5h3q2 0 6.5 2.5t5.5 5.5q1 2 0.5 8t-6 14t-13 15.5t-21 13.5
t-30.5 9q-32 4 -55.5 3t-40 -5.5t-26.5 -9t-15 -8.5l-4 -4h-38q-20 15 -50 22.5t-51 7.5h-20l4 -14q14 -25 37.5 -40.5t39.5 -19.5l16 -4q-14 -2 -26 -1.5t-20.5 2t-14.5 3.5t-9 4l-3 2q-10 5 -19 15.5t-15 21.5t-10 21t-6 17l-1 6q35 10 74 5t69 -16l31 -10q18 17 60 22.5
t75 2.5l33 -4q-24 45 -65.5 73.5t-82 38.5t-79 12.5t-60.5 0.5t-24 -3q43 -13 68 -47q-48 1 -88 -9.5t-67.5 -29t-49.5 -43t-34.5 -51.5t-21.5 -54.5t-12.5 -52t-5 -43.5t-1.5 -30t1 -12q3 19 45 56.5t68 39.5q16 2 22.5 -4.5t3.5 -12.5l-2 -7q-29 -33 -43.5 -72t-14 -71.5
t5 -60.5t11.5 -44l6 -16q7 20 18.5 36.5t24.5 27.5t27 19.5t26 13.5t23 8.5t16 4.5t6 1q-8 -33 11 -85t37.5 -83t22.5 -35q-2 19 1.5 37.5t10 33t15 28t17.5 23t16.5 16.5t12.5 11l4 3q-31 8 -53.5 28t-33.5 45t-15.5 42.5t-6.5 33.5q1 -8 5 -17.5t10.5 -20.5t14.5 -21.5
t19.5 -21t24 -19t28 -15t32.5 -8.5q46 -6 67.5 -0.5t42 11t36.5 1.5q35 -8 6 -55l-2 -4q102 8 102 130q-32 -32 -58.5 -43t-41.5 -6t-25 16.5t-13 21t-3 11.5q0 42 35.5 66t73.5 24q18 0 29.5 -9.5t14.5 -18.5l2 -9q11 7 21 38.5t0 50.5z" />
    <glyph glyph-name="uniE602" unicode="&#xe602;" 
d="M517 769q-92 0 -175.5 -34.5t-148.5 -99.5q-125 -125 -134 -301v-23q0 -92 34.5 -176t99.5 -149t148.5 -99.5t175.5 -34.5t176 34.5t149 99.5t99.5 149t34.5 176t-34.5 175.5t-99.5 148.5q-44 43 -96 73t-110 45.5t-119 15.5zM801 27q-57 -57 -130 -87.5t-153.5 -30.5
t-154 30.5t-130 87.5t-87 130t-30.5 153.5t30.5 154t87 130t130 87t154 30.5t153.5 -30.5t130 -87t87.5 -130t30.5 -153.5q0 -54 -13.5 -104.5t-40 -96t-64.5 -83.5zM525 266v296q0 6 -2.5 11t-6.5 9t-9 6.5t-11 2.5q-12 0 -20.5 -8.5t-8.5 -20.5v-315q0 -19 18 -27z
M747 247q0 -14 -9.5 -23t-22.5 -9h-214q-8 0 -15.5 4t-12 11.5t-4.5 16.5q0 13 9.5 22.5t22.5 9.5h214q23 0 30 -23q2 -5 2 -9z" />
    <glyph glyph-name="uniE603" unicode="&#xe603;" horiz-adv-x="1025" 
d="M384 896v-96q111 0 212 -43q97 -41 172.5 -116.5t116.5 -172.5q14 -34 23.5 -68.5t14.5 -70.5t5 -73h96q0 130 -50.5 248.5t-136.5 204.5t-204.5 136.5t-248.5 50.5zM384 704v-96q47 0 91.5 -12t84.5 -35t73 -56q50 -50 76.5 -114t26.5 -135h96q0 171 -113 298
q-110 123 -272 146q-32 4 -63 4zM480 512l-64 -64l-224 -64l-192 -416l25 -25l233 232q-2 9 -2 17q0 9 2.5 17t6.5 15t10 13t13 10t15 6.5t17 2.5q27 0 45.5 -18.5t18.5 -45.5q0 -9 -2.5 -17t-6.5 -15t-10 -13t-13 -10t-15 -6.5t-17 -2.5q-8 0 -17 2l-232 -233l25 -25
l416 192l64 224l64 64z" />
    <glyph glyph-name="uniE604" unicode="&#xe604;" horiz-adv-x="1025" 
d="M990 624q-7 0 -13.5 -2.5t-11 -7t-7 -11t-2.5 -13.5v-695q-36 -20 -157 -31q1 1 1.5 2.5t1 3.5t0.5 3v34q0 4 -1.5 7t-3.5 5.5t-5 4t-7 1.5q-7 0 -12 -5t-5 -13v-34q1 -7 5 -12q-21 -1 -42.5 -2.5t-46.5 -2t-51 -0.5q-121 0 -196 12t-96 25v167q0 14 -10 24t-24 10
q-9 0 -17 -4.5t-12.5 -12.5t-4.5 -17v-59h-1h-2h-185l17 43q2 6 2 13t-3 13l-30 70l31 77q2 7 2 13.5t-3 13.5l-30 69l31 69q5 14 0 28l-31 69l31 74q5 13 0 25l-18 46h186h2l1 1v-376q0 -3 0.5 -5.5t1.5 -5.5t2 -5t2.5 -4t3.5 -4t4 -3.5t4.5 -3t4.5 -2.5h6q2 -1 5 -1
q14 0 24 10t10 24v455q113 -29 308 -29q155 0 265 20t110 48.5t-110 48.5t-265.5 20t-265.5 -20t-110 -48q0 -3 2 -7q-1 -3 -1.5 -5.5t-0.5 -4.5v-35h-1l-2 1h-236q-18 0 -28 -15t-4 -32l31 -80l-30 -75q-6 -13 0 -26l30 -69l-30 -70q-1 -2 -2 -5t-1 -5v-6q0 -3 1 -5.5
t2 -5.5l30 -70l-31 -77q-1 -3 -1.5 -6t-0.5 -6.5t0.5 -7t2.5 -6.5l30 -70l-30 -76q-7 -17 3 -32q3 -4 7.5 -7.5t10 -5.5t10.5 -2h236h2h1v-60q0 -6 2 -11.5t6 -10t9 -7.5t10 -4q74 -52 333 -52q391 0 391 96v2v1v1v2v700q0 10 -4.5 17.5t-12.5 12t-17 4.5zM648.5 769
q63.5 0 108.5 -5t45 -12q0 -3 -7.5 -5.5t-22 -5t-33.5 -4t-42 -2.5t-48 -1q-64 0 -109 5t-45 12.5t45 12.5t108.5 5zM802 419q0 4 -1.5 7t-3.5 5.5t-5 4t-7 1.5q-3 0 -5.5 -1t-4.5 -2.5t-3.5 -4t-2.5 -5t-1 -5.5v-34q0 -7 5 -12t12 -5t12 5t5 12v34zM802 522q0 3 -1.5 6.5
t-3.5 5.5t-5 3.5t-7 1.5q-7 0 -12 -5t-5 -12v-34q0 -4 1.5 -7t3.5 -5.5t5.5 -3.5t6.5 -1q7 0 12 5t5 12v34zM802 112q0 4 -1.5 7t-3.5 5.5t-5 3.5t-6.5 1t-7 -1t-5.5 -3.5t-3.5 -5.5t-1.5 -7v-34q0 -3 1.5 -6.5t3.5 -5.5t5.5 -3.5t6.5 -1.5q5 0 9 2.5t6 6t2 8.5v34zM802 317
q0 4 -1.5 7t-3.5 5t-5 3.5t-7 1.5q-2 0 -4.5 -0.5t-4 -1.5t-3.5 -2.5t-3 -3.5t-1.5 -4.5t-0.5 -4.5v-34q0 -7 5 -12t12 -5t12 5t5 12v34zM802 215q0 7 -5 12t-12 5t-12 -5t-5 -12v-34q0 -7 5 -12.5t12 -5.5t12 5t5 13v34zM785 27q-7 0 -12 -5t-5 -12v-34q0 -7 5 -12t12 -5
t12 5t5 12v34q0 7 -5 12t-12 5z" />
    <glyph glyph-name="uniE605" unicode="&#xe605;" 
d="M1017 176q0 60 -71 101.5t-171 41.5q-15 0 -28 -1v233v18q0 60 -67 100.5t-167 40.5t-169 -41t-69 -100q0 -8 2 -18v-64q-12 1 -23 1q-100 0 -168 -41t-68 -100q0 -17 1 -18v-327h1q3 -56 70.5 -94t163.5 -38q97 0 167.5 38.5t73.5 93.5h1v14q2 0 4 -0.5t3 -0.5h3h3h4
q12 0 26 1v-4h2l-1 -9q0 -58 69.5 -101t168.5 -43q100 0 169 40.5t69 98.5v9h1v151q1 2 1 4.5t-0.5 4.5t-0.5 5v4zM778 273q84 0 141.5 -30.5t57.5 -67t-57.5 -66.5t-141.5 -30q-42 0 -80 8.5t-63.5 22.5t-40.5 31.5t-15 34.5q0 36 57.5 66.5t141.5 30.5zM979 96v-24
q-4 -19 -22 -35.5t-44.5 -28.5t-62 -19.5t-72.5 -7.5q-75 0 -133.5 26.5t-67.5 63.5v25q33 -29 85.5 -46t115.5 -17q126 0 197 59zM513 295h-4h-3h-3h-3h-4v34q1 5 2 11h4h3h3h5q127 0 195 63v-19q-6 -24 -33 -44.5t-70.5 -32.5t-91.5 -12zM711 314q-9 -2 -10 -2q8 7 10 8
v-6zM513 665q83 0 138 -30t55 -66q0 -7 -3 -15t-8.5 -15.5t-13 -14.5t-18 -13.5t-22.5 -12t-26.5 -10t-30.5 -8t-34 -5.5t-37 -2q-42 0 -79.5 9t-62.5 22.5t-39.5 30.5t-14.5 34q0 36 56.5 66t139.5 30zM315 491q3 -3 10 -8q1 -1 1 -2q0 1 -11 2v8zM254 443q83 0 141.5 -30
t58.5 -66t-58.5 -66t-141.5 -30t-139.5 30t-56.5 66t56.5 66t139.5 30zM56 269q32 -29 84 -45.5t114 -16.5t116 16.5t86 45.5v-25q-9 -36 -68 -62.5t-134 -26.5q-74 0 -132 26.5t-66 62.5v25zM56 181q31 -29 83.5 -46t114.5 -17q63 0 116.5 17t85.5 46v-19q-9 -37 -68 -63
t-134 -26q-74 0 -132 26t-66 63v19zM56 98q31 -29 83.5 -46t114.5 -17q63 0 116.5 17t85.5 46v-19q-9 -36 -68 -62.5t-134 -26.5q-74 0 -132 26.5t-66 62.5v19zM254 -92q-77 0 -136 28t-63 66h1v14q31 -30 83.5 -46.5t114.5 -16.5q63 0 116.5 17t85.5 46v-14
q-2 -18 -19.5 -35.5t-44.5 -30.5t-63.5 -20.5t-74.5 -7.5zM493 378q-4 10 -12.5 21t-18 19t-21.5 17q36 -6 72 -6q125 0 195 62v-25q-9 -36 -65 -62.5t-130 -26.5q-6 0 -20 1zM539 53q-7 0 -13.5 -0.5t-12.5 -0.5h-5q-2 0 -3.5 0.5t-4.5 0.5h-4v40q13 -1 17 -1q11 0 26 1
v-40zM539 131q-3 -1 -7 -1h-6h-6h-7h-5h-4h-3h-5v45h6h11h24q0 -3 0.5 -7t1.5 -8v-29zM545 214q-8 -1 -16 -1.5t-16 -0.5h-5h-4q-1 0 -3.5 0.5t-4.5 0.5v45q13 -1 17 -1q12 0 24.5 1t24.5 2.5t23 3.5q-29 -23 -40 -50zM778 -103q-80 0 -140.5 30t-61.5 70v10h1
q21 -19 51.5 -33.5t69 -22.5t80.5 -8q64 0 117 17.5t85 46.5l1 -9q0 -26 -28 -49.5t-75 -37.5t-100 -14zM235 318q-2 3 -4 12h-28q0 -20 18 -28q10 -5 30 -7v-14h11v15q16 0 28 6q4 2 8 4.5t6.5 6t3.5 7.5t1 8q0 14 -14 22q-1 0 -2 0.5t-2.5 1t-3 1.5t-3.5 1l-4 2h-4
q-2 1 -4.5 1.5t-5 1.5t-4.5 1v28q3 0 5.5 -0.5t4.5 -2t4 -3.5q2 -3 3 -9h27q0 18 -18 25q-3 2 -7 3t-9 2t-10 1v10h-11v-10q-5 0 -9 -0.5t-7 -1.5q-9 -2 -16 -7q-2 -1 -4 -2.5t-3 -3t-2 -3.5q-2 -3 -3 -6t-1 -7q0 -10 8.5 -17t28.5 -11l8 -2v-31q-12 1 -16 6zM262 340
q8 -2 12 -4q3 -2 4.5 -4.5t1.5 -5.5q-1 -8 -7 -12q-3 -1 -11 -2v28zM240 366q-7 4 -7 10q0 3 1.5 5t3.5 4q4 3 13 3v-26q-7 2 -11 4zM756 154q-1 1 -1.5 3t-1 4.5t-1.5 5.5h-28q0 -10 4.5 -17.5t12.5 -11.5q11 -5 31 -6v-15h10v15q8 0 15.5 1.5t12.5 4.5q20 8 20 27
q0 4 -1.5 8t-5 7.5t-7.5 5.5q-5 2 -13 5t-21 6v28q6 -1 9.5 -2.5t5.5 -3.5q2 -3 3 -10h27q0 18 -18 26q-5 2 -11.5 3.5t-15.5 1.5v10h-10v-9q-10 -1 -16 -2l-6 -2q-3 -1 -5.5 -2.5t-5.5 -2.5q-5 -4 -8.5 -9.5t-3.5 -12.5q0 -11 8.5 -18t28.5 -11l8 -2v-31q-12 1 -16 6z
M782 177q9 -3 13 -5q6 -3 6 -10q0 -4 -1.5 -7t-5.5 -4q-2 -1 -5 -1.5t-7 -1.5v29zM761 202q-7 4 -7 10t4.5 9t13.5 3v-25q-7 1 -11 3zM492 538q-2 3 -4 12h-28q0 -20 18 -29q5 -2 12.5 -3.5t17.5 -2.5v-14h10v14q9 1 16 2.5t13 3.5q19 9 19 27q0 14 -14 22q-2 1 -5.5 2
t-7.5 2.5t-9 3t-12 2.5v28q6 0 9.5 -1.5t5.5 -4.5t3 -9h27q0 17 -18 25q-5 2 -11.5 3.5t-15.5 2.5v10h-10v-10q-5 0 -9 -0.5t-7 -1.5q-9 -2 -16 -7q-6 -4 -9.5 -9.5t-3.5 -12.5q0 -10 9 -17q2 -2 4.5 -3.5t6 -3t8 -3t9.5 -2.5l8 -2v-31q-2 1 -4 1l-4 2q-2 0 -3.5 0.5
t-2.5 1.5zM518 560q5 -1 8 -2t5 -2q6 -4 6 -10q0 -8 -7 -12q-3 -2 -12 -2v28zM497 586q-2 1 -3.5 2.5t-2.5 3t-1 4.5q0 2 1.5 4.5t3.5 3.5q1 1 3 2t4.5 1.5t5.5 0.5v-26q-7 2 -11 4z" />
    <glyph glyph-name="uniE606" unicode="&#xe606;" 
d="M1011 335l-460 461q-2 2 -5 4.5t-13 7t-20.5 4.5t-20 -4t-14.5 -8l-4 -4l-154 -154v90q0 7 -4.5 11.5t-11.5 4.5h-96q-7 0 -11.5 -4.5t-4.5 -11.5v-217l-179 -180q-13 -12 -13 -35q0 -20 14 -34t34 -14q23 0 35 13l13 12v-425q0 -27 18.5 -45.5t45.5 -18.5h704
q27 0 45.5 18.5t18.5 45.5v426l13 -13q13 -13 35 -13q20 0 34 14t14 34q0 23 -13 35zM224 716h64v-106l-64 -63v169zM576 -180h-128v224h128v-224zM896 -148q0 -13 -9.5 -22.5t-22.5 -9.5h-256v240q0 7 -4.5 11.5t-11.5 4.5h-160q-7 0 -11.5 -4.5t-4.5 -11.5v-240h-256
q-13 0 -22.5 9.5t-9.5 22.5v457l384 385l384 -384v-458zM976 284q-9 0 -13 3l-440 441q-2 2 -5 3t-6 1t-6 -1t-5 -3l-440 -441q-4 -3 -13 -3q-7 0 -11.5 4.5t-4.5 11.5q0 10 3 13l462 460q6 7 15 7l16 -6l461 -461q3 -3 3 -13q0 -7 -4.5 -11.5t-11.5 -4.5zM368 300h-128
q-7 0 -11.5 -4.5t-4.5 -11.5v-128q0 -7 4.5 -11.5t11.5 -4.5h128q7 0 11.5 4.5t4.5 11.5v128q0 7 -4.5 11.5t-11.5 4.5zM352 172h-96v96h96v-96zM656 140h128q7 0 11.5 4.5t4.5 11.5v128q0 7 -4.5 11.5t-11.5 4.5h-128q-7 0 -11.5 -4.5t-4.5 -11.5v-128q0 -7 4.5 -11.5
t11.5 -4.5zM672 268h96v-96h-96v96z" />
    <glyph glyph-name="uniE607" unicode="&#xe607;" 
d="M264 527q0 104 73.5 177.5t176.5 74.5q104 0 177.5 -74.5t73.5 -179.5q0 -103 -74.5 -177.5t-176.5 -73.5q-104 2 -177 75.5t-73 177.5zM514.5 714q-77.5 0 -132.5 -54t-56 -132q-1 -30 8.5 -58.5t27.5 -52t41 -41.5t52 -27.5t59 -9.5q78 0 134 56t56 132
q-1 78 -56.5 132.5t-133 54.5zM513 156h-268q-51 0 -72 -21t-21 -72q-1 -11 -0.5 -79t0.5 -79v-2q0 -20 -7 -28q-5 -8 -14 -10.5t-18 0.5q-4 1 -7.5 3t-6 4.5t-4.5 6t-3 7t-1 7.5q0 15 -1 65t-0.5 82.5t3.5 64.5q5 55 44.5 84.5t105.5 30.5h254h276q12 1 23 0t23 -2.5
t23 -3.5q41 -10 68 -43.5t28 -77.5q1 -38 1 -192q0 -17 -7 -26.5t-23 -10.5q-31 -1 -31 38v80v81q-1 35 -10 55t-29 29t-54 9h-272zM655 8q0 -11 -11 -23q-11 -11 -28.5 -29t-30 -30.5t-28 -28.5t-30 -31t-28.5 -28q-24 -24 -48 0q-17 18 -30.5 31t-30 30t-30.5 31
q-25 25 -2 47q23 23 47 -1q7 -8 25.5 -26t28.5 -29q15 -16 31 1q30 30 107 106q8 9 15 11.5t19 -0.5q20 -11 24 -31zM658 533v-3v-3v-3v-3q-2 -15 -11 -15q-3 0 -5.5 2.5t-3 4.5t-0.5 6q-1 2 -1 5t-1 6v4q-1 3 -1 5.5t-1 4.5q-2 12 -5.5 22.5t-8.5 19.5t-11.5 17t-14 14.5
t-16 12t-18 9t-20.5 6t-22 2.5h-3l-5 1q-6 0 -9 0.5t-6 3.5t-3 9q1 6 5.5 8t12.5 2q24 2 46 -5.5t43 -21.5q18 -12 31 -29.5t20.5 -38.5t7.5 -43z" />
    <glyph glyph-name="uniE608" unicode="&#xe608;" 
d="M516 453q-90 0 -166.5 -44.5t-121 -121t-44.5 -167t44.5 -167t121 -121t166.5 -44.5q68 0 129.5 26.5t106 71t71 106t26.5 128.5q0 55 -17 105.5t-48 91.5t-71.5 71.5t-91.5 47.5t-105 17zM516 -168q-119 0 -203.5 84.5t-84.5 203.5q0 79 38.5 145t105 105t144.5 39
q119 0 203.5 -84.5t84.5 -204t-84.5 -204t-203.5 -84.5zM421 496l267 266q6 7 6 16t-6.5 15.5t-15.5 6.5t-16 -6l-139 -140l-140 140q-7 6 -16 6t-16 -6q-4 -5 -5.5 -10.5t0 -11t5.5 -10.5l140 -140l-79 -79l-251 251q-7 6 -16 6t-15.5 -6.5t-6.5 -15.5t7 -16l266 -266
q3 -3 7.5 -5t8.5 -2t8 2t7 5zM909 794q-3 3 -7.5 4.5t-8.5 1.5t-8 -1.5t-7 -4.5l-267 -267q-4 -4 -5.5 -9.5t0 -11.5t5.5 -10q7 -7 16 -7t16 7l266 266q6 7 6 16t-6 16z" />
    <glyph glyph-name="uniE609" unicode="&#xe609;" horiz-adv-x="1026" 
d="M827 204q158 44 198 249v3q-59 12 -108 36.5t-75.5 51t-45 51t-24.5 40.5l-6 16q-5 33 -15 62t-21 50t-25.5 39t-27 29.5t-27 21.5t-24.5 15t-20 8.5t-13.5 4.5t-5.5 1q1 -2 1 -4v-11q0 -8 -1 -16t-3.5 -19t-6 -20.5t-10 -19t-15 -16t-21.5 -10.5t-28 -4q-20 0 -35 6.5
t-23.5 17t-14.5 23.5t-8 25.5t-2.5 23.5t-0.5 17l1 7q-27 -14 -48.5 -29.5t-36 -32.5t-25 -33t-17.5 -35.5t-11.5 -34.5t-10 -35.5t-10.5 -33.5q-29 -86 -95.5 -135.5t-164.5 -86.5q16 -91 64.5 -145.5t160.5 -100.5q-2 -6 -7.5 -13.5t-12 -15.5t-16 -18t-17.5 -18l-19 -19
q-11 -11 -17.5 -17t-16.5 -15.5t-13 -12.5q70 -4 120 -12t106.5 -25.5t104.5 -49.5t89 -79q35 38 80 69.5t84.5 50t89.5 34t81.5 22.5t75.5 15q-29 22 -52 44.5t-35 39t-18 28t-6 16.5zM794 175q3 -4 -8 -8q-17 -7 -40 -7q-31 0 -35 12q-1 3 6 5q5 1 24 1l9 1h6h6h6h5h5h5
q2 0 4 -0.5t3 -0.5l2 -2q1 0 2 -1zM773 265q-10 -37 -64 -60l-14 -33q-1 1 -3.5 3t-10 9t-16 12t-21.5 12t-27 10t-32.5 5.5t-36.5 -2.5q3 7 1.5 12t-11.5 8t-36 -6l3 161q1 2 4 4t12.5 0.5t21.5 -11.5q3 -2 6 -17.5t7 -30.5t20.5 -27.5t44.5 -12.5q36 0 57 16.5t24 32.5
l3 16l35 1q1 -6 0 -16.5t-2 -18.5l-1 -7q2 -1 5 -3t10.5 -8t12.5 -13t8 -16.5t0 -19.5zM527 137q-6 5 -6.5 10.5t3.5 9t8 3.5q13 -1 61 -31q9 -6 20.5 -10t19.5 -5.5t15.5 -3t11 -3t2.5 -3.5q-4 -17 -14 -32.5t-32 -30t-50 -15.5q-28 0 -40 18t-10 37t10 26q10 9 10 16
t-9 14zM475 698h35q25 0 49 -27t24 -78q0 -29 -14 -47t-44 -18h-53q-4 0 -5.5 2t-3.5 19.5t-2 51.5q0 45 3.5 69t5.5 26t5 2zM367 451q64 30 146 30q58 0 103.5 -9t68 -21.5t37 -25.5t18.5 -22l4 -9q-4 0 -10 1t-27 3.5t-43.5 5.5t-58.5 7.5t-73 8.5q-179 23 -165 31z
M328 427q16 3 170 -25q-5 -1 -13.5 -2.5t-33.5 -6.5t-43.5 -7t-44 -4t-33.5 1q-15 3 -20 10.5t-1.5 14.5t9 12.5t10.5 6.5zM310 305q5 -9 3 -12t-7 -14.5t-5 -24.5t11 -24.5t19 -19.5t3 -14q-3 -3 -10.5 -3t-17 5t-18.5 12.5t-15 20.5t-6 27l1 4q1 4 3 9.5t5 12t6.5 12.5
t8 9.5t9 4t10.5 -4.5zM336 172q4 -4 -11 -12q-37 -19 -62 -8q-8 4 -11 10q-6 10 5 14t32 2t31 -3.5t16 -2.5zM679 36q-33 -16 -71 -41.5t-60 -42.5l-22 -18q-8 5 -21 13.5t-51.5 32t-74 44t-83 34.5t-77.5 18l-30 4l45 58q14 -22 41.5 -31.5t51.5 -7t43 2.5q3 -7 15 -22
t32.5 -37t49.5 -38t57 -16q29 0 55.5 14t46 35.5t31.5 39t20 34.5q17 -2 31.5 -1.5t26.5 2.5t21.5 5t17.5 7t13.5 8t9.5 7.5t6.5 6.5t3.5 5l1 2l51 -59l-11 -3q-12 -2 -32 -7.5t-42.5 -12.5t-48.5 -16.5t-46 -19.5zM518 554q11 0 21.5 11.5t10.5 35.5q0 34 -13.5 53.5
t-26.5 19.5q-9 0 -13 -13t-4 -26v-30q0 -51 25 -51zM732 294q-3 -1 -3 -7.5t0.5 -13.5t-1.5 -14q-1 -2 -2.5 -5.5t-2 -5.5t-2 -5.5t-1.5 -5.5t-0.5 -4.5t0.5 -3.5l2 -2q3 0 8 1.5t9.5 5.5t8.5 10.5t4 13.5q0 10 -3.5 19t-8.5 14t-8 3z" />
    <glyph glyph-name="uniE60A" unicode="&#xe60a;" 
d="M257 95l-23 246l-157 135l870 197l-426 -558l-125 94zM127 463l130 -110l19 -212l119 98l122 -91l373 488zM271 108l-38 246l681 311l11 -21l-581 -373zM258 340l24 -151l43 97l3 2l447 288zM342 287l62 -55l-16 -17l-61 55z" />
    <glyph glyph-name="uniE60B" unicode="&#xe60b;" 
d="M0 340q0 -70 13 -126.5t36 -98t58.5 -73t77 -51.5t95.5 -32q53 -13 109 -18q55 -5 122 -5t122 5q8 1 16 1.5t16 2t16 2.5t15.5 2.5t15.5 2.5t15.5 3t15.5 4q53 12 95 32q21 10 40.5 23t37.5 29q12 10 22.5 21.5t19.5 24.5t17 27q23 41 36 98q6 28 9.5 59.5t3.5 66.5
q0 124 -83 214q1 4 2.5 8.5t3 9.5t2.5 10q4 16 7 43q1 10 1 20t-0.5 21.5t-2.5 24.5q-6 37 -22 75l-7 2q-8 1 -26.5 -1t-42.5 -9q-3 -1 -7 -2t-8 -2.5t-9 -3.5l-8 -4l-10 -4l-10 -4l-11 -6q-9 -5 -19 -10.5t-20 -11.5t-20.5 -12.5t-20.5 -13.5q-73 20 -201 20q-64 0 -114 -5
t-87 -15q-42 29 -81 48t-62 26t-43 9t-25 1t-8 -2q-16 -38 -21.5 -75t-2.5 -66q0 -5 1 -10.5t1.5 -10t1.5 -8.5t1.5 -7.5t1.5 -6.5q4 -16 8 -28q-83 -90 -83 -214zM126 214q0 72 65 132q20 18 46 27q3 2 6.5 3t7 1.5t7 1.5t7 1.5t7.5 1.5h8l8 2h8q16 1 32 0.5t31 -1.5
q4 0 9.5 -0.5t11.5 -0.5t12 -0.5t13 -1t13.5 -1t14.5 -0.5q43 -3 76 -3t76 3q47 3 74 4q30 2 63 1q33 -2 59 -11q8 -3 16 -7t15.5 -9t13.5 -11q66 -59 66 -132q0 -22 -3 -41t-8 -35q-11 -34 -27.5 -56.5t-46.5 -38.5q-15 -7 -29.5 -13.5t-28.5 -10.5q-28 -8 -72.5 -13
t-79.5 -6t-88 -1t-89 1q-34 1 -79 6q-22 2 -40 5.5t-32 7.5q-29 9 -58.5 24.5t-46.5 38.5q-6 7 -10.5 16t-9 18.5t-8 21t-6 23.5t-3.5 25.5t-1 27.5zM640 224q0 40 19 68t45 28t45 -28t19 -68t-19 -68t-45 -28t-45 28t-19 68zM256 224q0 40 19 68t45 28t45 -28t19 -68
t-19 -68t-45 -28t-45 28t-19 68z" />
    <glyph glyph-name="uniE60C" unicode="&#xe60c;" 
d="M512 830q-89 0 -172 -35t-143 -96q-61 -61 -95.5 -143.5t-34.5 -170.5q0 -122 59.5 -223.5t160.5 -162.5t225 -61q91 0 171.5 34.5t143.5 96.5q82 83 114.5 200t0.5 233q-40 144 -158.5 236t-271.5 92zM788 452q-1 -5 -6.5 -12t-15.5 -15l-116 -106l4 -21q-40 0 -74 1
t-63 1q-33 2 -30 12q1 6 12 12q24 18 45.5 33t40.5 27.5t36 21.5q14 8 19.5 13.5t3.5 8.5t-8 4.5t-16 1.5l-7 1q-31 3 -67.5 3.5t-68 -1t-58.5 -4t-43.5 -5t-17.5 -3.5q64 -3 111 -6t72 -5q10 0 15 -1t5 -4l-17 -11l-4 -3l-35 -25q-55 -38 -82 -59t-27 -25q122 -19 259 3
l42 6l-39 -20l20 -112q0 -1 3 -20v-8q0 -5 -1 -6q-6 -5 -29 10l-8 4l-131 79l-138 -82l-2 -1q-23 -13 -27 -10q-1 1 -1 6t1 12.5t2 11.5v3l28 157l-115 104l-3 2q-2 3 -11 12t-9 15q1 5 33 7l11 1l147 18l64 129q13 32 20 32q2 1 7 -4l4 -6q2 -4 5 -12l3 -6l1 -1l66 -132
l163 -20l25 -5z" />
    <glyph glyph-name="uniE60D" unicode="&#xe60d;" 
d="M512 896q-139 0 -257 -68.5t-186.5 -186.5t-68.5 -257t68.5 -257t186.5 -186.5t257 -68.5t257 68.5t186.5 186.5t68.5 257t-68.5 257t-186.5 186.5t-257 68.5zM782 225q-8 -4 -21.5 5.5t-27.5 29.5q-9 -41 -48 -74q19 -7 30.5 -18.5t11.5 -24.5q0 -14 -14 -26t-37.5 -19
t-50.5 -7q-38 0 -67 12.5t-34 30.5h-13q-6 -18 -34.5 -30.5t-66.5 -12.5q-43 0 -73 15t-30 37q0 28 42 43q-39 33 -48 74q-30 -43 -49 -35q-13 7 -11 38.5t19 69.5q5 12 10.5 22.5t11.5 19t12 15.5t12 11.5t11 6.5v8q0 12 3 22t9 19v3q0 12 5 19q2 39 16 73t37 59.5t57 40
t74 14.5q81 0 130 -53t53 -133q3 -4 4.5 -9.5t1.5 -9.5v-3q3 -5 6 -12t4 -14t1 -15v-7q9 -4 19 -14t20 -26t19 -36q10 -25 14.5 -48.5t2.5 -39.5t-11 -21z" />
    <glyph glyph-name="uniE60E" unicode="&#xe60e;" 
d="M511 544q-29 -32 -44.5 -73t-15.5 -86q0 -91 60 -160q60 69 60 160t-60 159zM511 832q-73 0 -141.5 -22.5t-123 -64t-96 -96t-64 -123t-22.5 -141.5q0 -90 35.5 -173t95 -142.5t142.5 -95t174 -35.5q72 0 140.5 22.5t123.5 64t96 96t63.5 123t22.5 140.5q0 91 -35 174
t-95 142.5t-143 95t-173 35.5zM149 223q-63 69 -63 162q0 90 59 158t147 81v-185q0 -6 -0.5 -14.5t-8 -33.5t-21 -49.5t-43.5 -57.5t-70 -61zM329 142q-30 0 -58 7t-54 20q85 62 109 148q40 -89 118 -145q-54 -30 -115 -30zM513 223l-1 1l-1 1l-1 -1q-16 9 -29.5 19.5
t-33.5 31t-35 42.5t-28 55t-18 70v182q87 -14 145 -80q58 66 145 80v-185q0 -62 -53 -132q-35 -46 -90 -84zM694 142q-30 0 -58.5 7t-53.5 21q84 62 108 147q40 -89 119 -146q-54 -29 -115 -29zM730 442v182q43 -6 81 -27.5t65.5 -53t43.5 -73t16 -85.5q0 -90 -59 -159
q-18 10 -36.5 24.5t-44.5 40t-44 65.5t-22 86z" />
    <glyph glyph-name="uniE60F" unicode="&#xe60f;" 
d="M417 283q-13 5 -27 0t-22 -17q-5 -8 -5.5 -16.5t4 -16t12.5 -10.5q9 -4 18.5 -3.5t18 6t13.5 13.5t5.5 17t-4.5 16t-13 11zM459 300q-4 1 -7.5 0.5t-6.5 -2.5t-5 -5q-3 -5 -1.5 -9.5t6.5 -6.5q12 -5 19 7q7 11 -5 16zM512 829q-45 0 -89.5 -9t-84 -26t-75.5 -41.5
t-65.5 -54t-54 -65.5t-41.5 -75.5t-26 -84t-9 -89.5q0 -90 35.5 -172.5t95 -142t142 -95t173 -35.5t172.5 35.5t141.5 95t95 142t35.5 172.5q0 170 -113 296q-109 122 -270 144q-31 5 -62 5zM457 115h1q-70 0 -132.5 20.5t-103.5 61.5t-41 93q0 87 98 185q63 62 126 87
t90 -3q24 -24 8 -77q-4 -12 9 -9q6 1 6 2q52 21 91 21.5t56 -22.5q17 -24 0 -66q-1 -4 -1.5 -7t2 -5t4 -2.5t6.5 -1.5q33 -11 56.5 -33.5t23.5 -56.5q0 -32 -22 -64.5t-59.5 -60t-95 -45t-122.5 -17.5zM705 461q7 23 -9 41t-39 13q-6 -2 -11.5 0t-9.5 6t-5 10q-2 9 3 16.5
t13.5 9.5t17.5 2t17.5 -2t16.5 -5t15.5 -8.5t14.5 -12.5q32 -36 17 -83q-2 -6 -6 -10t-9.5 -5t-11.5 1q-9 3 -13 11t-1 16zM831 420q-2 -6 -7 -10.5t-11.5 -6t-12.5 0.5q-10 3 -15 12.5t-2 19.5q7 21 6.5 42t-8.5 41.5t-23 37.5q-12 13 -26 22t-29 13.5t-31.5 5.5t-31.5 -3
q-11 -2 -19.5 3.5t-10.5 16.5q-2 6 0 12.5t7 11t12 6.5q15 3 30 3.5t29.5 -1.5t29 -6.5t28 -11.5t26 -16.5t23.5 -21.5q32 -35 41.5 -81.5t-5.5 -89.5zM432 413q-82 -8 -136 -51.5t-48.5 -97.5t67 -86t143.5 -24t136 51.5t48.5 97.5t-67 86t-143.5 24zM528 244
q-17 -37 -58.5 -55t-82.5 -4q-39 12 -54 46t3 69q11 22 33 38t47.5 21t52.5 -1q40 -10 57.5 -43.5t1.5 -70.5z" />
    <glyph glyph-name="uniE610" unicode="&#xe610;" horiz-adv-x="1025" 
d="M512 896q-139 0 -257 -68.5t-186.5 -186.5t-68.5 -257t68.5 -257t186.5 -186.5t257 -68.5t257 68.5t186.5 186.5t68.5 257t-68.5 257t-186.5 186.5t-257 68.5zM247 89q0 -5 -2 -8.5t-5 -5t-6 -1.5q-5 0 -10 4t-6 11q-14 76 15 176q8 28 20.5 55.5t24.5 46t23.5 33
t18 21.5t6.5 8q-5 11 -5 23q0 16 8 30t22 21.5t31 7.5q10 0 19 -3t16.5 -8.5t13 -12.5t8 -16t2.5 -19q0 -13 -4.5 -24t-12.5 -19t-19 -13t-23 -5q-11 0 -19.5 2.5t-16.5 7.5q-1 1 -7 -5.5t-15.5 -20t-20.5 -30.5t-22 -41.5t-19 -48.5q-10 -34 -13 -69t-2 -63.5t0 -33.5z
M560 437q-2 -26 -13 -54t-31.5 -55t-56.5 -44t-80 -17q-24 0 -41 5.5t-11 19.5q3 7 11.5 9.5t16 2t15.5 -1.5l9 -2q60 0 102.5 44t44.5 93q1 16 -2 33t-9.5 35t-18.5 33.5t-28 28t-39 20t-50 7.5q-23 0 -43.5 -5.5t-35.5 -15t-27 -22.5t-19.5 -27.5t-13 -30t-7.5 -29.5
t-2 -27q0 -9 3 -20t6 -19.5t5.5 -16.5t1.5 -13.5t-6 -8.5q-1 -1 -3 -1.5t-4 -0.5q-6 0 -12.5 5.5t-12 15.5t-9 25.5t-3.5 33.5q0 48 19.5 90.5t63 71t102.5 28.5q44 0 80 -18.5t57 -47t31.5 -61t9.5 -63.5zM723 486q-1 -8 -9 -8h-3q-9 0 -19 1.5t-27.5 9.5t-30.5 22
q-11 11 -17.5 26.5t-7.5 33.5t2.5 35.5t15.5 33.5t31 27q23 13 46.5 14t42 -7t32 -19t20.5 -23q20 -38 12 -75l-19 -40q-3 -4 -7 -4.5t-7 2.5v-1v1q-7 7 -1 13q4 2 12 20q7 13 4.5 39.5t-16.5 41.5q-48 55 -108 21q-22 -11 -34.5 -35.5t-6.5 -52.5q3 -14 10.5 -26t16 -18.5
t14.5 -10t11 -5.5q8 -3 16 -5t12 -2h4q4 -1 7 -3.5t4 -5.5v2v-4v2zM861 410q-2 0 -6.5 1t-13.5 4.5t-19 8.5t-23 14t-26 19q-9 8 -17.5 17.5t-15 18t-11.5 17t-9 15t-6.5 12t-3.5 8.5l-1 3q-8 0 -15.5 4.5t-12.5 11.5t-5 14t1.5 13t5 11.5t10.5 8.5t16 3q17 0 25.5 -11
t8.5 -25q0 -16 -14 -25l1 -5q1 -4 5 -13t9.5 -19t15.5 -22t22 -22q15 -14 39 -28t38 -18q8 -3 8.5 -7t-2.5 -6.5t-4 -2.5z" />
    <glyph glyph-name="uniE611" unicode="&#xe611;" horiz-adv-x="1025" 
d="M320 588q-9 0 -18 -4t-15 -12t-6 -17q0 -14 12 -23.5t27 -9.5t24 9t9 24q0 7 -2.5 13.5t-6.5 10.5t-10 6.5t-14 2.5zM502 522q4 0 8 1t7 2.5t6 3.5t5 4.5t3.5 6t2.5 7.5t1 8q0 15 -9 24t-24 9q-7 0 -14 -2.5t-12.5 -6.5t-9 -10.5t-3.5 -13.5q0 -14 12 -23.5t27 -9.5z
M512 896q-139 0 -257 -68.5t-186.5 -186.5t-68.5 -257t68.5 -257t186.5 -186.5t257 -68.5q104 0 199 40.5t163.5 109t109 163.5t40.5 199q0 188 -122 332q-116 136 -292 171q-49 9 -98 9zM405 252q-7 0 -13.5 0.5t-13.5 1t-12.5 1.5t-13 2.5t-12 2.5t-13 2.5t-13.5 2.5
l-91 -46l26 79q-104 74 -104 178q0 61 35 113t94.5 81.5t130.5 29.5q96 0 170.5 -53t91.5 -132q-4 0 -8 0.5t-9 0.5h-8q-92 0 -156.5 -60.5t-64.5 -147.5q0 -9 1 -18.5t2.5 -18.5t4.5 -18q-12 -1 -24 -1zM788 160l20 -66l-72 39q-52 -13 -78 -13q-45 0 -86 15t-70.5 41
t-47 61t-17.5 74t17.5 74.5t47 61t70.5 40.5t86 15q89 0 155 -56.5t66 -134.5q0 -82 -91 -151zM730 397q-10 0 -18 -8.5t-8 -17.5q0 -7 3.5 -13t9.5 -10t13 -4q14 0 23 8t9 18.5t-9 18.5t-23 8zM587 397q-10 0 -18 -8.5t-8 -17.5q0 -7 3.5 -13t9.5 -10t13 -4q5 0 10.5 1.5
t9.5 4t6.5 6t4 7.5t1.5 8q0 10 -9 18t-23 8z" />
    <glyph glyph-name="uniE612" unicode="&#xe612;" 
d="M388 459h248v-100h-248v100zM512 832q-122 0 -225 -60t-163 -163t-60 -225t60 -225t163 -163t225 -60t225 60t163 163t60 225t-60 225t-163 163t-225 60zM313 608h398v-50h-398v50zM686 508v-199h-348v199h348zM736 160h-448v50h122q-18 37 -47 81l47 18q1 -2 6 -9t6 -9
t5.5 -9t6 -10t5 -9.5t5.5 -11.5t5 -12t5.5 -14t5.5 -15h88q21 29 47 99l51 -19q-16 -35 -43 -80h133v-50z" />
    <glyph glyph-name="uniE613" unicode="&#xe613;" horiz-adv-x="1025" 
d="M347 550l273 273v-207q0 -5 2.5 -10t7.5 -8t11 -3q4 0 8 1.5t7 4.5t5 7t2 8v280h-22h-258q-9 0 -15 -6.5t-6 -14.5q0 -6 2.5 -11t7.5 -8t11 -3h207l-274 -273v-2h-1q-51 34 -113 34q-83 0 -142.5 -59.5t-59.5 -143t59.5 -142.5t142.5 -59q41 0 78.5 16t64.5 43t43 64.5
t16 78.5q0 81 -57 140zM202 250q-66 0 -112.5 47t-46.5 113t46.5 112.5t112.5 46.5t113 -46.5t47 -112.5t-47 -113t-113 -47zM821.5 534q-83.5 0 -142.5 -59t-59 -143q0 -35 11.5 -67.5t33.5 -59.5l-166 -165l-101 101q-6 6 -15 6t-15 -6q-4 -4 -5.5 -9.5t0 -11t5.5 -9.5
l101 -101l-101 -102q-4 -4 -5.5 -9.5t0 -11t5.5 -9.5q6 -6 15 -6q3 0 5.5 0.5t5 2t4.5 3.5l101 101l101 -101q3 -3 7 -4.5t8 -1.5q9 0 15.5 6.5t6.5 15t-7 14.5l-101 102l166 165q10 -8 21.5 -15t24 -12.5t26 -9.5t27.5 -6t28 -2q83 0 142.5 59.5t59.5 143t-59.5 142.5
t-143 59zM822 173q-66 0 -113 46.5t-47 112.5q0 44 21.5 80.5t58.5 58t80 21.5q32 0 61.5 -13t51 -34t34 -50.5t12.5 -62.5q0 -66 -46.5 -112.5t-112.5 -46.5z" />
    <glyph glyph-name="uniE614" unicode="&#xe614;" 
d="M702 67h322l-4 31q-13 85 -63 155.5t-126 110.5q38 35 59.5 82t21.5 100q0 103 -73 175.5t-176 72.5q-64 0 -119 -30t-89 -83q-46 18 -94 18q-68 0 -125 -33t-90.5 -90t-33.5 -125q0 -107 79 -182q-75 -40 -124.5 -110t-62.5 -155l-4 -30h722l-4 30q-6 34 -16 63z
M663 741q81 0 138 -57t57 -138q0 -49 -23 -92t-62 -70l-2 -1q-1 -1 -3 -2.5t-3 -1.5q-4 -3 -8.5 -5t-8 -3.5t-8 -4t-7.5 -3.5q-2 -2 -6 -2q-2 -1 -4.5 -1.5t-4.5 -0.5q-2 -1 -5.5 -1.5t-5.5 -1.5q-1 0 -4 -0.5t-4 -0.5q-4 -2 -12 -2h-5q-3 0 -9 -0.5t-9 -0.5h-5h-5
q-3 0 -6 0.5t-5 0.5q-5 0 -7 2q-2 0 -7 1l-7 1q-2 0 -4 1t-3 1q-3 0 -7 1.5t-6.5 2.5t-6.5 2q0 1 0.5 3t0.5 3q3 8 4 13l3 12q1 1 1.5 4.5t1.5 4.5q29 -13 58 -13t54.5 11t44 31t28.5 45h-181v1q-1 4 -1.5 11t-1.5 11l-1 4q-3 13 -6 20v1l-4 11q-2 7 -4 10q0 1 -0.5 1.5
t-0.5 1.5q-26 57 -70 94h-1q-1 0 -7 5.5t-10 7.5q26 38 68.5 60.5t91.5 22.5zM166 451q0 80 57 137.5t138 57.5q52 0 92 -24h2q3 -2 6 -3.5t7 -4.5q1 0 1.5 -0.5t1.5 -0.5q9 -7 28 -23q9 -10 17.5 -21t15.5 -23l1 -2q2 -2 4.5 -7.5t3.5 -8.5v-1l3 -7q2 -3 3 -8q0 -1 1 -4
q1 -2 2 -7.5t2 -8.5v-1q0 -2 0.5 -3.5t0.5 -3t0.5 -3t0.5 -3.5t1 -3v-4q0 -3 0.5 -9t0.5 -8q0 -15 -1 -22q0 -4 -2 -7q0 -2 -1 -7t-1 -7t-1 -4t-1 -3q-2 -11 -5 -16q0 -1 -1 -4q-1 -2 -2 -4.5t-2 -4.5t-2 -4.5t-2 -5.5v-1q-1 -1 -1 -2q-3 -5 -5 -7q0 -1 -1 -3l-1 -3
q-2 -2 -3.5 -4t-2.5 -4t-2.5 -4t-2.5 -4v-1l-1 -1l-4 -4l-3 -4l-4 -5l-7 -6q-2 -3 -4 -3q-4 -4 -14 -12l-4 -3q-2 0 -4.5 -2t-3.5 -3l-3 -1q-14 -8 -20 -11q-1 0 -1.5 -0.5t-1.5 -0.5q-1 -1 -4.5 -2.5t-5 -2t-3.5 -1t-3 -1.5t-4 -1.5t-4 -1.5h-1q-2 0 -4 -0.5t-3.5 -1
t-3.5 -0.5q-1 0 -3 -1t-4 -1h-1q-4 -1 -12 -1h-5q-3 0 -9 -0.5t-9 -0.5q-12 0 -17 1h-5q-2 0 -6 0.5t-6 0.5q-4 0 -6 2q-2 0 -7 1.5t-8 2.5q-1 0 -2.5 0.5t-2.5 1t-3 0.5q-1 1 -3 2l-3 1q-2 1 -5 2l-5 2q-1 0 -2 1q-10 5 -19 11q-3 3 -5 3l-3 1q-20 12 -36.5 29t-28 37
t-17.5 43.5t-6 48.5zM63 27q18 69 64 123.5t112 83.5q6 -2 10 -4q1 0 4.5 -1.5t4.5 -2t4.5 -2t4.5 -2.5q3 -1 8.5 -3t7.5 -3l3 -2q1 0 2.5 -0.5t2.5 -0.5q2 -1 7 -2t7 -2q1 0 3 -0.5t3 -0.5q14 -3 21 -3h5q5 -1 10 -1h13h8h6q5 0 8 1h6q1 0 3.5 0.5t4.5 0.5h5v0q1 0 3 1
t3.5 1t3.5 0.5t3 0.5h3q1 0 3 0.5t3.5 1t2.5 1.5h2q2 0 2 1q2 0 4 0.5t3 0.5q1 1 2.5 1.5t3 0.5t2.5 1l3 1q1 1 3 2l4 1q1 1 4.5 2t4.5 2q5 3 9 4l3 1q1 1 3 1.5t4 1.5q10 -4 20 -9.5t19 -11t18 -12t17.5 -13.5t16.5 -15t15.5 -16t14.5 -17t13 -18t11.5 -19t10.5 -20l4 -8
q10 -21 16 -47h-596zM651 165l-1 1q-2 2 -4.5 5.5t-5 6.5t-4.5 5l-4 4q-1 2 -2 3l-2 2q-2 2 -3 3.5t-3 2.5l-2 3l-1 1l-1 1l-1 1l-1 1l-1 1l-3 2l-2 2l-2 3q-1 1 -2.5 2t-2.5 2l-1 1l-1 1l-1 1l-1 1l-1 1l-2 2q-4 4 -12 9q-1 1 -3.5 3t-4.5 4q-11 8 -16 10q-1 2 -9 6
q-7 5 -18 9q-1 0 -1 1l1 1l2 2l1 1l1 1l1 1l1 1l1 1l1 2q8 8 11 12q1 1 3 3.5t4 4.5l6 9q1 1 3 4t3 4v1q46 -18 93 -18q21 0 41.5 3.5t40.5 9.5h1q3 1 5 2l6 2q2 1 5 2l6 2q1 1 3.5 2.5t4 2t4 2t4.5 1.5q66 -28 113 -83t65 -124h-283q-8 17 -29 47zM362 294q10 0 19 1.5
t18 4t17.5 6t16 8.5t14.5 10.5t13 12t11.5 13.5t10 15t7.5 16h-254q16 -38 50.5 -62.5t76.5 -24.5z" />
    <glyph glyph-name="uniE615" unicode="&#xe615;" 
d="M198 237l1 -1v-1l2 -2q1 -1 3 -2q1 -1 2 -1l97 -93q5 -4 10 -6.5t10.5 -2.5t11 2.5t9.5 6.5t6.5 9.5t2.5 11t-2.5 11t-6.5 9.5l-79 79l78 78q9 9 9 21t-8.5 20.5t-20.5 8.5t-20 -9l-102 -102q-14 -15 -5 -33q0 -2 2 -4zM681 137q4 -4 9.5 -6.5t11 -2.5t10.5 2.5t10 6.5
l97 93l5 3l2 2v1l1 1q2 2 2 4q4 8 3 17t-8 16l-102 102q-8 9 -20 9t-20 -9q-6 -6 -8 -13t0 -14.5t8 -13.5l78 -78l-79 -79q-9 -9 -9 -21t9 -20zM160 768q-9 0 -16 -4.5t-11.5 -11.5t-4.5 -16q0 -13 9.5 -22.5t22.5 -9.5t22.5 9.5t9.5 22.5t-9.5 22.5t-22.5 9.5zM928 896
h-832q-16 0 -30.5 -5t-26.5 -13.5t-20.5 -20.5t-13.5 -26.5t-5 -30.5v-832q0 -40 28 -68t68 -28h832q40 0 68 28t28 68v832q0 40 -28 68t-68 28zM960 0q0 -26 -19 -45t-45 -19h-768q-27 0 -45.5 19t-18.5 45v576h896v-576zM960 640h-896v128q0 27 18.5 45.5t45.5 18.5h768
q27 0 45.5 -18.5t18.5 -45.5v-128zM288 768q-13 0 -22.5 -9.5t-9.5 -22.5t9.5 -22.5t22.5 -9.5q9 0 16 4.5t11.5 11.5t4.5 16q0 7 -2.5 12.5t-7 10t-10 7t-12.5 2.5zM416 768q-13 0 -22.5 -9.5t-9.5 -22.5t9.5 -22.5t22.5 -9.5t22.5 9.5t9.5 22.5q0 9 -4.5 16t-11.5 11.5
t-16 4.5zM469 137l130 194q6 6 8 14t0 16t-8 14t-14 8t-16 0t-14 -8l-130 -194q-9 -9 -9 -22t9 -22q5 -4 10.5 -6.5t11.5 -2.5t11.5 2.5t10.5 6.5z" />
  </font>
</defs>
</svg>
